<?xml version="1.0" encoding="UTF-8"?>
<svg xmlns="http://www.w3.org/2000/svg" width="2500" height="460" viewBox="0 0 2500 460" fill="none">
  <g clip-path="url(#clip0_45_9)">
    <mask id="mask0_45_9" style="mask-type:luminance" maskUnits="userSpaceOnUse" x="0" y="-570" width="2500" height="1562">
      <path d="M2500 -570H0V991.315H2500V-570Z" fill="white"></path>
    </mask>
    <g mask="url(#mask0_45_9)">
      <path d="M169.512 228.223H302.715V184.057C302.715 184.057 193.379 184.018 178.808 184.057C113.437 184.233 72.6365 225.842 72.6951 284.528C72.7928 343.116 116.445 384.491 181.777 384.335H302.715V340.403H167.851C148.281 340.403 122.89 315.89 122.89 284.352C122.89 252.813 148.34 228.203 169.512 228.203" fill="#39445D"></path>
      <path d="M910.899 134.035H861.485V384.451H910.899V134.035Z" fill="#39445D"></path>
      <path d="M934.082 231.404C942.031 228.887 965.508 215.869 1000.9 222.7C1036.33 229.667 1060.31 269.969 1014.2 372.801C1006.7 386.755 1027.71 388.687 1027.71 388.687L1061.56 384.647C1061.56 384.647 1118.22 265.363 1073.77 214.835C1029.32 164.307 937.988 184.584 931.973 188.429C919.492 196.431 926.074 233.785 934.062 231.365" fill="#39445D"></path>
      <path d="M1798.67 184.135H1729.53V146.605H1679.36V184.135H1636V230.155H1679.36V384.413H1729.53V230.155H1798.67V184.135Z" fill="#39445D"></path>
      <path d="M1992.79 184.135H1923.65V146.605H1873.48V184.135H1830.14V230.155H1873.48V384.413H1923.65V230.155H1992.79V184.135Z" fill="#39445D"></path>
      <path d="M592.07 248.637C592.07 219.285 566.777 184.038 517.617 184.038H356.504V228.301H517.265C532.91 228.301 541.875 236.83 541.875 248.072V340.326H399.199C384.179 340.326 374.59 331.094 374.59 319.853C374.59 308.612 383.535 300.122 399.199 300.122H524.355L524.297 257.83C524.297 257.83 432.832 257.713 399.062 257.713C349.922 257.713 324.531 292.979 324.531 322.312C324.629 359.432 358.652 384.452 399.844 384.355H592.051V248.637H592.07Z" fill="#39445D"></path>
      <path d="M1376.07 248.637C1376.07 219.285 1350.76 184.038 1301.62 184.038H1140.53V228.301H1301.27C1316.91 228.301 1325.88 236.83 1325.88 248.072V340.326H1183.2C1168.18 340.326 1158.59 331.094 1158.59 319.853C1158.59 308.612 1167.54 300.122 1183.2 300.122H1308.38L1308.32 257.83C1308.32 257.83 1216.86 257.713 1183.11 257.713C1133.96 257.713 1108.57 292.979 1108.57 322.312C1108.67 359.432 1142.7 384.452 1183.89 384.355H1376.09V248.637H1376.07Z" fill="#39445D"></path>
      <path d="M673.106 184.115H623.418V384.451H673.106V184.115Z" fill="#39445D"></path>
      <path d="M695.937 231.989C703.886 229.471 716.035 216.434 751.445 223.284C774.043 227.734 787.832 243.816 786.289 282.985C785.859 293.661 833.593 289.894 833.652 281.736C833.867 249.729 837.832 226.797 810.371 201.523C776.523 170.414 699.883 185.208 693.867 189.052C681.386 197.035 687.968 234.409 695.957 231.989" fill="#39445D"></path>
      <path d="M1457.09 184.115H1407.4V384.451H1457.09V184.115Z" fill="#39445D"></path>
      <path d="M1479.9 231.989C1487.85 229.471 1500 216.434 1535.41 223.284C1558.01 227.734 1571.8 243.816 1570.25 282.985C1569.82 293.661 1617.56 289.894 1617.62 281.736C1617.83 249.729 1621.8 226.797 1594.32 201.523C1560.47 170.414 1483.85 185.208 1477.81 189.052C1465.31 197.035 1471.89 234.409 1479.9 231.989Z" fill="#39445D"></path>
      <path d="M2289.55 192.117C2257.15 182.3 2239.26 146.605 2249.63 112.392C2253.22 100.526 2259.71 90.4168 2268.07 82.6297C2268.07 82.6297 2289.73 61.3959 2323.83 73.1838C2323.46 73.1838 2323.07 73.1448 2322.71 73.1448C2302.07 73.1448 2285.29 91.5878 2285.29 114.363C2285.29 137.139 2302.05 155.582 2322.71 155.582C2338.98 155.582 2352.85 144.087 2357.97 128.025H2357.95C2357.95 128.025 2359.12 124.532 2359.84 118.911C2359.96 117.954 2360.06 116.803 2360.06 116.803C2361.33 102.458 2358.83 77.009 2330.8 56.7705C2292.7 29.9549 2239.1 32.6872 2239.1 32.6872C2143.93 32.6872 2066.74 111.495 2066.74 208.706C2066.74 305.917 2143.93 384.647 2239.1 384.647H2367.01V147.893C2356.66 182.125 2321.97 201.934 2289.55 192.117Z" fill="#39445D"></path>
      <path d="M2407.58 345.302C2418.3 345.302 2427.3 353.772 2427.3 364.838C2427.3 375.904 2418.3 384.608 2407.58 384.608C2396.86 384.608 2387.73 376.118 2387.73 364.838C2387.73 353.557 2396.78 345.302 2407.58 345.302ZM2407.58 381.719C2416.66 381.719 2423.71 374.44 2423.71 364.838C2423.71 355.236 2416.66 348.171 2407.58 348.171C2398.5 348.171 2391.31 355.411 2391.31 364.838C2391.31 374.44 2398.34 381.719 2407.58 381.719ZM2399.88 353.44H2408.77C2414.24 353.44 2416.84 355.606 2416.84 359.998C2416.84 364.155 2414.18 365.911 2410.78 366.262L2417.34 376.43H2413.5L2407.25 366.536H2403.48V376.43H2399.9V353.421L2399.88 353.44ZM2403.48 363.628H2407.19C2410.35 363.628 2413.22 363.472 2413.22 359.861C2413.22 356.816 2410.62 356.348 2408.2 356.348H2403.48V363.647V363.628Z" fill="#39445D"></path>
    </g>
  </g>
  <defs>
    <clipPath id="clip0_45_9">
      <rect width="2500" height="460" fill="white"></rect>
    </clipPath>
  </defs>
</svg>
