<?xml version="1.0" encoding="UTF-8"?>
<svg xmlns="http://www.w3.org/2000/svg" width="2557" height="508" viewBox="0 0 2557 508" fill="none">
  <path d="M340.647 78.0675C374.823 71.3159 411.415 68.8477 444.546 81.6065C460.687 88.4625 476.488 98.061 486.648 112.753C502.006 133.242 504.343 160.627 501.274 185.27C493.491 232.008 467.503 273.55 436.344 308.378C420.66 324.532 405.238 341.261 386.85 354.425C386.759 329.978 385.597 305.466 387.046 281.059C395.26 269.109 406.53 259.629 414.862 247.745C433.184 222.998 449.665 195.012 452.446 163.67C454.327 150.428 450.984 136.716 443.866 125.472C433.511 110.232 415.528 102.253 397.715 99.9676C363.971 94.4567 330.174 103.964 298.884 115.991C245.185 137.983 196.514 171.989 157.193 214.64C134.966 238.864 115.926 267.059 107.019 299.002C104.173 311.303 102.253 324.206 104.721 336.756C107.006 347.817 115.534 358.395 127.248 359.714C146.85 363.71 165.093 353.158 180.451 342.358C210.63 318.721 235.378 289.077 259.445 259.472C288.829 222.149 316.893 183.716 341.979 143.35C342.266 224.304 342.266 305.244 341.979 386.198C292.733 414.144 237.741 436.24 180.203 435C148.404 435.222 114.581 425.166 93.0853 400.563C78.3807 384.8 73.1571 362.704 72.5041 341.731C71.9687 310.585 83.748 280.732 98.531 253.856C125.589 207.784 164.192 169.168 207.744 138.57C247.731 110.376 292.707 88.5801 340.647 78.0675Z" fill="#39445D" stroke="#39445D" stroke-width="0.122429"></path>
  <path d="M1012.41 163.553C1038.33 130.252 1083.63 117.376 1124.35 122.808C1146.15 125.746 1167.62 134.248 1183.54 149.788C1203.31 168.972 1213.56 196.2 1216.22 223.233C1194.77 223.363 1173.32 223.376 1151.89 223.285C1147.98 209.991 1143.72 195.665 1131.78 187.229C1111.45 174.927 1082.31 178.74 1066.58 196.853C1057.75 206.308 1053.62 219.119 1051.99 231.721C1050.72 249.926 1049.41 269.044 1055.95 286.478C1061.12 299.916 1069.32 313.302 1082.61 319.962C1104.02 331.153 1131.25 330.069 1151.75 317.272C1170.03 305.819 1183.89 288.581 1194.88 270.272C1224.95 222.41 1254.73 174.379 1285.03 126.674C1315.48 126.661 1345.94 126.634 1376.41 126.713C1376.44 211.571 1376.44 296.429 1376.41 381.3C1355.09 381.353 1333.81 381.379 1312.51 381.313C1312.44 365.773 1312.47 350.246 1312.01 334.732C1283.07 334.379 1254.08 333.517 1225.17 334.719C1214.02 342.959 1205.67 354.49 1194 362.156C1174.68 375.541 1151.68 383.481 1128.26 385.114C1093.52 388.953 1056.4 381.666 1028.56 359.675C1009.73 345.205 997.352 323.749 990.391 301.326C977.933 255.345 982.033 201.894 1012.41 163.553ZM1254.83 283.331C1274.02 283.448 1293.21 283.409 1312.42 283.357C1312.34 252.707 1312.85 222.044 1312 191.408C1292.29 221.627 1273.93 252.72 1254.83 283.331Z" fill="#39445D" stroke="#39445D" stroke-width="0.122429"></path>
  <path d="M2117.42 122.011C2155.1 119.387 2194.86 131.571 2221.11 159.57C2247.95 188.273 2256.92 229.397 2254.01 267.699C2251.69 306.197 2233.05 345.323 2199.59 366.1C2160.15 390.625 2108.1 392.388 2066.08 373.347C2043.83 362.587 2025 344.604 2013.73 322.574C2000.4 298.44 1997.42 270.011 1998.18 242.887C1999.98 209.926 2013 177.003 2037.12 153.993C2058.95 134.065 2088.1 123.5 2117.42 122.011ZM2117.46 180.882C2099.96 182.266 2083.88 192.635 2075.29 207.862C2063.6 228.691 2062.79 253.987 2067.09 277.01C2069.85 292.616 2077.42 308.13 2090.86 317.219C2108.68 330.2 2133.16 330.069 2153.07 322.234C2173.68 313.471 2184.84 291.206 2186.8 269.802C2188.94 245.133 2187.36 217.004 2170.06 197.519C2156.86 183.285 2136.25 178.113 2117.46 180.882Z" fill="#39445D" stroke="#39445D" stroke-width="0.122429"></path>
  <path d="M574.627 126.7C607.275 126.739 639.91 126.491 672.571 126.7C709.607 126.896 748 141.94 770.462 172.354C785.611 192.975 793.146 218.283 794.648 243.644C796.358 270.794 791.735 298.819 778.637 322.874C766.962 343.207 749.045 360.275 727.367 369.547C706.707 379.472 683.371 381.183 660.805 381.353C632.075 381.457 603.344 381.274 574.627 381.3C574.588 296.442 574.575 211.571 574.627 126.7ZM640.197 181.887C639.466 229.645 640.08 277.415 639.923 325.185C653.348 325.224 666.799 325.734 680.224 324.663C696.012 322.978 710.952 313.288 718.082 298.963C728.477 281.45 729.574 260.086 727.563 240.314C725.8 222.789 719.636 204.401 705.245 193.236C687.001 178.779 661.902 181.417 640.197 181.887Z" fill="#39445D" stroke="#39445D" stroke-width="0.122429"></path>
  <path d="M809.692 126.7C867.008 126.856 924.325 126.229 981.628 127.026C982.19 145.178 982.098 163.344 982.033 181.496C946.343 181.6 910.652 181.443 874.961 181.548C874.935 197.206 874.935 212.851 874.974 228.522C906.303 228.587 937.645 228.482 968.987 228.548C968.987 245.512 969.026 262.488 968.974 279.452C937.632 279.518 906.29 279.413 874.948 279.478C874.935 294.705 874.948 309.919 874.961 325.146C910.521 325.407 946.081 324.728 981.641 325.525C982.229 343.977 982.216 362.443 981.694 380.909C924.364 381.849 867.021 381.104 809.692 381.3C809.653 296.429 809.64 211.571 809.692 126.7Z" fill="#39445D" stroke="#39445D" stroke-width="0.122429"></path>
  <path d="M1393.42 126.687C1457.84 126.66 1522.25 126.66 1586.67 126.687C1586.7 144.956 1586.71 163.226 1586.67 181.509C1565.33 181.548 1544.02 181.496 1522.71 181.535C1522.63 248.136 1522.75 314.725 1522.68 381.313C1500.91 381.353 1479.17 381.366 1457.42 381.3C1457.33 314.712 1457.45 248.123 1457.39 181.535C1436.05 181.496 1414.73 181.548 1393.42 181.509C1393.37 163.226 1393.37 144.956 1393.42 126.687Z" fill="#39445D" stroke="#39445D" stroke-width="0.122429"></path>
  <path d="M1602.37 126.687C1624.11 126.634 1645.85 126.634 1667.61 126.7C1667.72 158.89 1667.57 191.094 1667.68 223.285C1697.26 223.35 1726.83 223.337 1756.44 223.285C1756.52 191.094 1756.37 158.89 1756.48 126.687C1778.21 126.634 1799.97 126.634 1821.72 126.7C1821.76 211.571 1821.76 296.429 1821.72 381.3C1799.97 381.366 1778.22 381.366 1756.49 381.3C1756.2 347.059 1756.88 312.818 1756.15 278.59C1726.8 277.859 1697.42 277.924 1668.08 278.525C1667.15 312.766 1667.89 347.033 1667.62 381.3C1646 381.3 1624.39 381.64 1602.77 381.026C1601.81 296.246 1602.6 211.466 1602.37 126.687Z" fill="#39445D" stroke="#39445D" stroke-width="0.122429"></path>
  <path d="M1840.06 126.7C1861.79 126.634 1883.54 126.634 1905.3 126.7C1905.59 193.145 1904.87 259.602 1905.64 326.06C1938.6 326.948 1971.59 326.256 2004.58 326.504C2004.61 344.643 2004.71 362.769 2004.22 380.909C1949.51 381.849 1894.77 381.118 1840.06 381.3C1840 296.429 1840 211.571 1840.06 126.7Z" fill="#39445D" stroke="#39445D" stroke-width="0.122429"></path>
  <path d="M2269.7 126.713C2292.18 126.621 2314.66 126.543 2337.15 126.856C2365.01 173.099 2392.65 219.485 2420.81 265.557C2421.61 219.276 2420.91 172.981 2421.19 126.687C2442.04 126.647 2462.94 126.634 2483.83 126.687C2483.85 211.558 2483.87 296.429 2483.82 381.3C2462.53 381.353 2441.27 381.405 2420.03 381.274C2391.05 332.747 2362.36 284.049 2332.59 236.018C2332.03 284.441 2332.54 332.877 2332.33 381.313C2311.44 381.353 2290.56 381.366 2269.69 381.313C2269.66 296.442 2269.65 211.584 2269.7 126.713Z" fill="#39445D" stroke="#39445D" stroke-width="0.122429"></path>
</svg>
