<svg width="1440" height="142" viewBox="0 0 1440 142" fill="none" xmlns="http://www.w3.org/2000/svg">
<rect width="1440" height="142" fill="#fdfcfc"/>
<g id="Dividers">
<path d="M-72 -726.532C-72 -730.951 -68.4183 -734.532 -64 -734.532H1504C1508.42 -734.532 1512 -730.951 1512 -726.532V713.155C1512 717.573 1508.42 721.155 1504 721.155H-64C-68.4183 721.155 -72 717.573 -72 713.155V-726.532Z" fill="white"/>
<g id="Shapes Section">
<g id="Shapes">
<g id="C21. Divider ">
<g id="Clip path group">
<mask id="mask0_4564_282" style="mask-type:luminance" maskUnits="userSpaceOnUse" x="0" y="0" width="1440" height="142">
<g id="clippath">
<path id="Vector" d="M1440 0H0V141.128H1440V0Z" fill="white"/>
</g>
</mask>
<g mask="url(#mask0_4564_282)">
<g id="Group">
<g id="Vector_2" filter="url(#filter0_d_4564_282)">
<path d="M-543.39 189.825C-638.955 258.045 -715.5 350.04 -764.76 455.85C-800.138 531.84 -821.04 613.163 -826.89 697.568C-831.135 758.858 -845.467 819.023 -869.295 875.648C-948.112 1062.95 -982.928 1269.22 -969.975 1472.17C-954.383 1716.5 -870.57 1951.52 -727.59 2151.8C-624.375 2296.38 -495.938 2416.43 -345.84 2508.61C-200.865 2597.65 -41.895 2657.08 126.653 2685.24C295.208 2713.4 464.842 2708.88 630.847 2671.8C770.767 2640.55 903.652 2586.96 1025.81 2512.54C1111.15 2460.54 1208.88 2432.39 1308.82 2431.03C1551.19 2427.71 1783.99 2351.23 1982.04 2209.84C2112.65 2116.6 2221.09 2000.55 2304.34 1864.93C2384.76 1733.94 2438.42 1590.29 2463.83 1437.98C2489.23 1285.67 2485.1 1132.36 2451.57 982.335C2416.84 827.003 2351.95 682.005 2258.68 551.348C2176.89 436.777 2077.01 338.783 1961.83 260.108C1850.53 184.08 1727.76 127.898 1596.91 93.12C1467.12 58.62 1333.53 46.26 1199.87 56.3925C1115.18 62.8125 1031.35 78.2925 950.7 102.39C855.225 130.928 753.847 133.41 657.083 109.575C496.928 70.125 332.918 61.095 169.613 82.7475C108.683 90.825 46.83 88.7925 -13.44 76.725C-88.29 61.7475 -167.175 59.25 -241.56 69.5025C-349.628 84.3975 -454.005 126 -543.398 189.818L-543.39 189.825Z" fill="url(#paint0_linear_4564_282)"/>
</g>
<g id="Vector_3" filter="url(#filter1_d_4564_282)">
<path d="M2110.15 215.333C2204.59 285.105 2279.63 378.323 2327.16 484.92C2361.29 561.473 2380.87 643.125 2385.35 727.613C2388.6 788.963 2401.95 849.353 2424.86 906.36C2500.62 1094.91 2532.07 1301.72 2515.81 1504.44C2496.25 1748.49 2408.62 1982.11 2262.4 2180.03C2156.85 2322.92 2026.48 2440.87 1874.9 2530.6C1728.5 2617.26 1568.59 2674.1 1399.6 2699.51C1230.61 2724.93 1061.07 2717.65 895.688 2677.88C756.293 2644.35 624.3 2588.61 503.362 2512.21C418.882 2458.83 321.623 2429.09 221.723 2426.1C-20.5649 2418.84 -252.083 2338.58 -447.81 2193.99C-576.885 2098.64 -683.422 1980.84 -764.467 1843.88C-842.737 1711.6 -894.052 1567.1 -916.98 1414.4C-939.9 1261.7 -933.285 1108.49 -897.315 959.018C-860.07 804.27 -792.825 660.345 -697.44 531.225C-613.8 417.998 -512.34 321.645 -395.895 244.853C-283.38 170.648 -159.705 116.468 -28.3124 83.8275C102.023 51.4425 235.8 41.2575 369.285 53.565C453.855 61.3575 537.428 78.2025 617.663 103.613C712.658 133.703 813.983 137.828 911.123 115.568C1071.89 78.7275 1236.03 72.3675 1398.96 96.675C1459.76 105.743 1521.62 104.715 1582.09 93.6375C1657.17 79.8825 1736.09 78.66 1810.3 90.1275C1918.11 106.778 2021.79 150.075 2110.13 215.34L2110.15 215.333Z" fill="url(#paint1_linear_4564_282)"/>
</g>
<g id="Vector_4" filter="url(#filter2_d_4564_282)">
<path d="M2088.29 222.045C2182.73 291.818 2257.78 385.035 2305.31 491.633C2339.44 568.185 2359.01 649.838 2363.5 734.325C2366.74 795.675 2380.1 856.065 2403 913.073C2478.76 1101.62 2510.22 1308.44 2493.96 1511.15C2474.39 1755.2 2386.77 1988.82 2240.55 2186.75C2134.99 2329.64 2004.62 2447.58 1853.05 2537.31C1706.65 2623.97 1546.73 2680.81 1377.74 2706.23C1208.75 2731.64 1039.22 2724.36 873.833 2684.59C734.438 2651.06 602.445 2595.32 481.507 2518.92C397.027 2465.54 299.767 2435.81 199.867 2432.81C-42.42 2425.55 -273.938 2345.3 -469.665 2200.7C-598.74 2105.35 -705.278 1987.55 -786.323 1850.6C-864.593 1718.31 -915.908 1573.82 -938.835 1421.11C-961.755 1268.41 -955.14 1115.2 -919.17 965.73C-881.925 810.983 -814.68 667.058 -719.295 537.938C-635.655 424.71 -534.195 328.358 -417.75 251.565C-305.235 177.36 -181.56 123.18 -50.1675 90.5401C80.1674 58.155 213.945 47.97 347.43 60.2775C432 68.07 515.572 84.915 595.807 110.325C690.802 140.415 792.127 144.54 889.267 122.28C1050.04 85.44 1214.17 79.08 1377.1 103.388C1437.9 112.455 1499.77 111.428 1560.23 100.35C1635.32 86.595 1714.23 85.3725 1788.44 96.84C1896.25 113.49 1999.94 156.788 2088.28 222.053L2088.29 222.045Z" fill="white"/>
</g>
</g>
</g>
</g>
</g>
</g>
</g>
</g>
<defs>
<filter id="filter0_d_4564_282" x="-1012.62" y="12.9601" width="3532.85" height="2730.49" filterUnits="userSpaceOnUse" color-interpolation-filters="sRGB">
<feFlood flood-opacity="0" result="BackgroundImageFix"/>
<feColorMatrix in="SourceAlpha" type="matrix" values="0 0 0 0 0 0 0 0 0 0 0 0 0 0 0 0 0 0 127 0" result="hardAlpha"/>
<feOffset/>
<feGaussianBlur stdDeviation="20.0025"/>
<feColorMatrix type="matrix" values="0 0 0 0 0.0745098 0 0 0 0 0.294118 0 0 0 0 0.847059 0 0 0 0.4 0"/>
<feBlend mode="normal" in2="BackgroundImageFix" result="effect1_dropShadow_4564_282"/>
<feBlend mode="normal" in="SourceGraphic" in2="effect1_dropShadow_4564_282" result="shape"/>
</filter>
<filter id="filter1_d_4564_282" x="-970.335" y="8.50318" width="3530.33" height="2745.84" filterUnits="userSpaceOnUse" color-interpolation-filters="sRGB">
<feFlood flood-opacity="0" result="BackgroundImageFix"/>
<feColorMatrix in="SourceAlpha" type="matrix" values="0 0 0 0 0 0 0 0 0 0 0 0 0 0 0 0 0 0 127 0" result="hardAlpha"/>
<feOffset/>
<feGaussianBlur stdDeviation="20.0025"/>
<feColorMatrix type="matrix" values="0 0 0 0 0.0745098 0 0 0 0 0.294118 0 0 0 0 0.847059 0 0 0 0.4 0"/>
<feBlend mode="normal" in2="BackgroundImageFix" result="effect1_dropShadow_4564_282"/>
<feBlend mode="normal" in="SourceGraphic" in2="effect1_dropShadow_4564_282" result="shape"/>
</filter>
<filter id="filter2_d_4564_282" x="-992.19" y="15.2157" width="3530.33" height="2745.84" filterUnits="userSpaceOnUse" color-interpolation-filters="sRGB">
<feFlood flood-opacity="0" result="BackgroundImageFix"/>
<feColorMatrix in="SourceAlpha" type="matrix" values="0 0 0 0 0 0 0 0 0 0 0 0 0 0 0 0 0 0 127 0" result="hardAlpha"/>
<feOffset/>
<feGaussianBlur stdDeviation="20.0025"/>
<feColorMatrix type="matrix" values="0 0 0 0 0.0745098 0 0 0 0 0.294118 0 0 0 0 0.847059 0 0 0 0.4 0"/>
<feBlend mode="normal" in2="BackgroundImageFix" result="effect1_dropShadow_4564_282"/>
<feBlend mode="normal" in="SourceGraphic" in2="effect1_dropShadow_4564_282" result="shape"/>
</filter>
<linearGradient id="paint0_linear_4564_282" x1="1445.3" y1="1378.21" x2="625.687" y2="1378.21" gradientUnits="userSpaceOnUse">
<stop stop-color="#32BEF0"/>
<stop offset="1" stop-color="#15EDED"/>
</linearGradient>
<linearGradient id="paint1_linear_4564_282" x1="-62.055" y1="1381.43" x2="1769.3" y2="1381.43" gradientUnits="userSpaceOnUse">
<stop stop-color="#8739E4"/>
<stop offset="0.5" stop-color="#253E7D"/>
<stop offset="1" stop-color="#32BEF0"/>
</linearGradient>
</defs>
</svg>
