<svg width="1584" height="98" viewBox="0 0 1584 98" fill="none" xmlns="http://www.w3.org/2000/svg">
<rect width="1584" height="98" fill="#F5F5F5"/>
<g id="Dividers">
<path d="M0 -1648.5C0 -1652.92 3.58172 -1656.5 8 -1656.5H1576C1580.42 -1656.5 1584 -1652.92 1584 -1648.5V4567.5C1584 4571.92 1580.42 4575.5 1576 4575.5H7.99996C3.58168 4575.5 0 4571.92 0 4567.5V-1648.5Z" fill="white"/>
<g id="Mask group">
<mask id="mask0_0_1" style="mask-type:alpha" maskUnits="userSpaceOnUse" x="0" y="0" width="1584" height="98">
<rect id="Rectangle 421" width="1584" height="98" fill="#D9D9D9"/>
</mask>
<g mask="url(#mask0_0_1)">
<g id="Group 606">
<g id="Vector" filter="url(#filter0_d_0_1)">
<path d="M1917.84 2731.21C2027.87 2693.18 2126.5 2627.2 2203.05 2540.41C2258.03 2478.08 2300.75 2406.62 2330.01 2328.01C2351.26 2270.92 2381.78 2217.73 2420.34 2170.57C2547.89 2014.61 2638.93 1828.24 2683.61 1631.61C2737.4 1394.89 2723.69 1147.88 2643.98 917.273C2586.43 750.795 2498.01 600.563 2381.17 470.76C2268.32 345.383 2133.83 244.23 1981.46 170.115C1829.09 96.0001 1666.51 52.6576 1498.24 41.2951C1356.41 31.7176 1214.99 45.3526 1077.93 81.8251C982.179 107.303 881.342 106.62 785.927 79.8601C554.521 14.9476 311.672 22.2976 83.6342 101.13C-66.7559 153.113 -202.461 233.01 -319.716 338.588C-432.966 440.565 -524.331 562.095 -591.268 699.795C-658.198 837.495 -697.326 984.428 -707.571 1136.51C-718.176 1293.97 -697.183 1450.08 -645.186 1600.51C-599.586 1732.42 -532.131 1853.65 -444.696 1960.82C-360.216 2064.37 -259.243 2152.27 -144.591 2222.09C-30.8535 2291.35 92.7092 2340.61 222.662 2368.52C304.997 2386.2 389.057 2395.03 472.517 2394.76C571.322 2394.43 668.417 2420.54 753.744 2470.39C894.962 2552.88 1048.38 2607.52 1209.75 2632.8C1269.96 2642.23 1328.2 2661.53 1382.13 2689.93C1449.11 2725.19 1523.41 2749.72 1597.03 2760.86C1703.97 2777.05 1814.91 2766.79 1917.84 2731.21V2731.21Z" fill="url(#paint0_linear_0_1)"/>
</g>
<g id="Vector_2" filter="url(#filter1_d_0_1)">
<path d="M1722.22 2762.04C1832.82 2725.69 1932.44 2661.23 2010.31 2575.62C2066.24 2514.14 2110.04 2443.34 2140.5 2365.18C2162.62 2308.43 2193.96 2255.71 2233.23 2209.15C2363.15 2055.16 2457.02 1870.19 2504.7 1674.27C2562.1 1438.41 2552.18 1191.21 2475.99 959.413C2421 792.076 2334.89 640.509 2220.04 508.936C2109.12 381.848 1976.2 278.652 1824.98 202.217C1673.76 125.782 1511.86 79.9595 1343.78 66.0265C1202.11 54.2823 1060.5 65.7543 922.901 100.128C826.77 124.139 725.955 121.915 630.96 93.6998C400.574 25.2581 157.64 28.8955 -71.5753 104.233C-222.742 153.911 -359.653 231.725 -478.508 335.498C-593.303 435.733 -686.515 555.852 -755.549 692.513C-824.576 829.174 -865.945 975.491 -878.513 1127.4C-891.523 1284.68 -872.919 1441.09 -823.227 1592.3C-779.648 1724.9 -714.054 1847.14 -628.267 1955.63C-545.38 2060.46 -445.763 2149.9 -332.191 2221.46C-219.525 2292.44 -96.7302 2343.6 32.7806 2373.49C114.836 2392.42 198.751 2402.53 282.205 2403.54C381.004 2404.72 477.689 2432.31 562.244 2483.46C702.184 2568.1 854.751 2625.08 1015.72 2652.82C1075.77 2663.17 1133.71 2683.36 1187.2 2712.57C1253.63 2748.86 1327.55 2774.52 1400.99 2786.79C1507.67 2804.6 1618.76 2796.05 1722.22 2762.05L1722.22 2762.04Z" fill="url(#paint1_linear_0_1)"/>
</g>
<g id="Vector_3" filter="url(#filter2_d_0_1)">
<path d="M-698.202 2716.12C-808.234 2678.09 -906.859 2612.11 -983.412 2525.32C-1038.39 2462.99 -1081.11 2391.53 -1110.37 2312.92C-1131.62 2255.83 -1162.14 2202.64 -1200.7 2155.49C-1328.25 1999.52 -1419.29 1813.15 -1463.97 1616.52C-1517.76 1379.8 -1504.05 1132.79 -1424.34 902.183C-1366.79 735.705 -1278.37 585.473 -1161.53 455.67C-1048.68 330.293 -914.194 229.14 -761.824 155.025C-609.454 80.9103 -446.869 37.5678 -278.599 26.2053C-136.767 16.6278 4.64563 30.2628 141.708 66.7353C237.461 92.2128 338.298 91.5303 433.713 64.7703C665.118 -0.142206 907.968 7.2078 1136.01 86.0403C1286.4 138.023 1422.1 217.92 1539.36 323.498C1652.61 425.475 1743.97 547.005 1810.91 684.705C1877.84 822.405 1916.97 969.338 1927.21 1121.42C1937.82 1278.88 1916.82 1434.99 1864.83 1585.42C1819.23 1717.34 1751.77 1838.57 1664.34 1945.73C1579.86 2049.28 1478.88 2137.19 1364.23 2207C1250.49 2276.26 1126.93 2325.53 996.978 2353.43C914.643 2371.11 830.583 2379.94 747.123 2379.66C648.318 2379.34 551.223 2405.45 465.896 2455.29C324.678 2537.78 171.258 2592.43 9.88806 2617.7C-50.3219 2627.13 -108.559 2646.44 -162.492 2674.83C-229.467 2710.09 -303.77 2734.63 -377.389 2745.77C-484.332 2761.95 -595.272 2751.7 -698.202 2716.12Z" fill="url(#paint2_linear_0_1)"/>
</g>
<g id="Vector_4" filter="url(#filter3_d_0_1)">
<path d="M-377.402 2574.16C-480.979 2539.17 -574.028 2477.86 -646.487 2396.86C-698.529 2338.69 -739.108 2271.87 -767.107 2198.24C-787.435 2144.77 -816.449 2095.02 -852.968 2050.99C-973.773 1905.37 -1060.49 1730.95 -1103.73 1546.6C-1155.8 1324.66 -1144.56 1092.61 -1071.21 875.53C-1018.27 718.819 -936.226 577.16 -827.357 454.498C-722.205 336.019 -596.583 240.146 -453.984 169.546C-311.387 98.9451 -158.994 57.1748 -1.05221 45.3984C132.075 35.4721 264.96 47.3466 393.91 80.6955C483.995 103.991 578.684 102.687 668.109 76.9305C884.986 14.4522 1113.09 19.7577 1327.75 92.2874C1469.31 140.114 1597.28 214.25 1708.08 312.624C1815.1 407.643 1901.7 521.166 1965.46 650.036C2029.22 778.905 2066.93 916.627 2077.55 1059.38C2088.54 1207.17 2069.85 1353.91 2022.01 1495.51C1980.06 1619.69 1917.51 1733.97 1836.11 1835.19C1757.46 1932.98 1663.22 2016.19 1556.01 2082.51C1449.66 2148.29 1333.95 2195.37 1212.1 2222.43C1134.9 2239.57 1056.02 2248.41 977.64 2248.71C884.853 2249.06 793.847 2274.21 714.046 2321.58C581.976 2399.97 438.264 2452.3 286.894 2477.09C230.415 2486.34 175.853 2504.85 125.393 2531.87C62.7314 2565.43 -6.88218 2588.95 -75.943 2599.9C-176.262 2615.8 -280.51 2606.9 -377.401 2574.17L-377.402 2574.16Z" fill="url(#paint3_linear_0_1)"/>
</g>
<path id="Vector_5" d="M1090.4 2083.79C1174.12 2056.17 1249.5 2007.28 1308.39 1942.39C1350.69 1895.8 1383.8 1842.15 1406.81 1782.94C1423.51 1739.94 1447.19 1700 1476.9 1664.72C1575.14 1548 1646.08 1407.87 1682.02 1259.47C1725.29 1080.82 1717.57 893.652 1659.69 718.193C1617.91 591.529 1552.57 476.831 1465.5 377.291C1381.4 281.151 1280.67 203.117 1166.11 145.367C1051.54 87.6165 928.904 53.0518 801.616 42.6413C694.334 33.8653 587.12 42.6694 482.95 68.8105C410.178 87.0733 333.834 85.4722 261.882 64.1817C87.3731 12.5442 -96.5808 15.5051 -270.085 72.7366C-384.511 110.481 -488.115 169.516 -578.028 248.195C-664.872 324.188 -735.356 415.222 -787.512 518.76C-839.669 622.298 -870.873 733.124 -880.262 848.169C-889.983 967.271 -875.764 1085.7 -838.014 1200.15C-804.906 1300.52 -755.133 1393.03 -690.085 1475.11C-627.233 1554.42 -551.724 1622.06 -465.666 1676.15C-380.293 1729.81 -287.272 1768.44 -189.179 1790.97C-127.031 1805.24 -63.4751 1812.83 -0.285961 1813.52C74.5289 1814.33 147.76 1835.15 211.829 1873.8C317.859 1937.77 433.441 1980.8 555.347 2001.67C600.833 2009.46 644.723 2024.7 685.25 2046.78C735.578 2074.2 791.578 2093.57 847.197 2102.79C927.999 2116.2 1012.1 2109.62 1090.42 2083.79L1090.4 2083.79Z" fill="white"/>
<path id="Vector_6" d="M297.065 2474.87C197.417 2442 107.702 2383.81 37.6015 2306.58C-12.7388 2251.13 -52.145 2187.27 -79.5315 2116.8C-99.4127 2065.62 -127.595 2018.08 -162.95 1976.09C-279.887 1837.17 -364.31 1670.38 -407.088 1493.76C-458.591 1281.13 -449.403 1058.36 -380.512 849.522C-330.784 698.765 -253.024 562.25 -149.391 443.776C-49.2926 329.349 70.6012 236.471 206.957 167.736C343.32 99.001 489.277 57.8615 640.777 45.4708C768.466 35.0255 896.073 45.5043 1020.06 76.6178C1106.67 98.3544 1197.54 96.4488 1283.18 71.1086C1490.88 9.6488 1709.82 13.1729 1916.33 81.2907C2052.52 126.214 2175.83 196.479 2282.85 290.123C2386.21 380.572 2470.1 488.922 2532.18 612.154C2594.26 735.386 2631.4 867.294 2642.57 1004.22C2654.14 1145.98 2637.22 1286.93 2592.29 1423.15C2552.88 1542.62 2493.64 1652.73 2416.22 1750.42C2341.41 1844.81 2251.54 1925.32 2149.11 1989.7C2047.5 2053.57 1936.79 2099.54 1820.04 2126.36C1746.07 2143.34 1670.42 2152.37 1595.21 2153.19C1506.17 2154.16 1419.01 2178.94 1342.75 2224.94C1216.55 2301.09 1078.99 2352.29 933.89 2377.14C879.752 2386.41 827.513 2404.55 779.278 2430.82C719.377 2463.46 652.725 2486.51 586.526 2497.49C490.354 2513.45 390.254 2505.62 297.044 2474.88L297.065 2474.87Z" fill="white"/>
</g>
</g>
</g>
</g>
<defs>
<filter id="filter0_d_0_1" x="-730.243" y="16.0566" width="3466.1" height="2772.27" filterUnits="userSpaceOnUse" color-interpolation-filters="sRGB">
<feFlood flood-opacity="0" result="BackgroundImageFix"/>
<feColorMatrix in="SourceAlpha" type="matrix" values="0 0 0 0 0 0 0 0 0 0 0 0 0 0 0 0 0 0 127 0" result="hardAlpha"/>
<feOffset/>
<feGaussianBlur stdDeviation="10"/>
<feColorMatrix type="matrix" values="0 0 0 0 0.0745098 0 0 0 0 0.294118 0 0 0 0 0.847059 0 0 0 0.4 0"/>
<feBlend mode="normal" in2="BackgroundImageFix" result="effect1_dropShadow_0_1"/>
<feBlend mode="normal" in="SourceGraphic" in2="effect1_dropShadow_0_1" result="shape"/>
</filter>
<filter id="filter1_d_0_1" x="-902.533" y="24.9183" width="3464.02" height="2790.93" filterUnits="userSpaceOnUse" color-interpolation-filters="sRGB">
<feFlood flood-opacity="0" result="BackgroundImageFix"/>
<feColorMatrix in="SourceAlpha" type="matrix" values="0 0 0 0 0 0 0 0 0 0 0 0 0 0 0 0 0 0 127 0" result="hardAlpha"/>
<feOffset/>
<feGaussianBlur stdDeviation="10"/>
<feColorMatrix type="matrix" values="0 0 0 0 0.0745098 0 0 0 0 0.294118 0 0 0 0 0.847059 0 0 0 0.4 0"/>
<feBlend mode="normal" in2="BackgroundImageFix" result="effect1_dropShadow_0_1"/>
<feBlend mode="normal" in="SourceGraphic" in2="effect1_dropShadow_0_1" result="shape"/>
</filter>
<filter id="filter2_d_0_1" x="-1516.21" y="0.966797" width="3466.1" height="2772.26" filterUnits="userSpaceOnUse" color-interpolation-filters="sRGB">
<feFlood flood-opacity="0" result="BackgroundImageFix"/>
<feColorMatrix in="SourceAlpha" type="matrix" values="0 0 0 0 0 0 0 0 0 0 0 0 0 0 0 0 0 0 127 0" result="hardAlpha"/>
<feOffset/>
<feGaussianBlur stdDeviation="10"/>
<feColorMatrix type="matrix" values="0 0 0 0 0.0745098 0 0 0 0 0.294118 0 0 0 0 0.847059 0 0 0 0.4 0"/>
<feBlend mode="normal" in2="BackgroundImageFix" result="effect1_dropShadow_0_1"/>
<feBlend mode="normal" in="SourceGraphic" in2="effect1_dropShadow_0_1" result="shape"/>
</filter>
<filter id="filter3_d_0_1" x="-1145.93" y="23.6844" width="3236.54" height="2593.89" filterUnits="userSpaceOnUse" color-interpolation-filters="sRGB">
<feFlood flood-opacity="0" result="BackgroundImageFix"/>
<feColorMatrix in="SourceAlpha" type="matrix" values="0 0 0 0 0 0 0 0 0 0 0 0 0 0 0 0 0 0 127 0" result="hardAlpha"/>
<feOffset/>
<feGaussianBlur stdDeviation="5"/>
<feColorMatrix type="matrix" values="0 0 0 0 0.0745098 0 0 0 0 0.294118 0 0 0 0 0.847059 0 0 0 0.2 0"/>
<feBlend mode="normal" in2="BackgroundImageFix" result="effect1_dropShadow_0_1"/>
<feBlend mode="normal" in="SourceGraphic" in2="effect1_dropShadow_0_1" result="shape"/>
</filter>
<linearGradient id="paint0_linear_0_1" x1="363.5" y1="156.5" x2="1477.5" y2="156.5" gradientUnits="userSpaceOnUse">
<stop stop-color="#46EEAA"/>
<stop offset="0.1875" stop-color="#0C9995"/>
<stop offset="0.730769" stop-color="#0C9995"/>
<stop offset="1" stop-color="#46EEAA"/>
</linearGradient>
<linearGradient id="paint1_linear_0_1" x1="210.253" y1="89.409" x2="1430.11" y2="108.056" gradientUnits="userSpaceOnUse">
<stop stop-color="#46EEAA"/>
<stop offset="0.346154" stop-color="#32BEF0"/>
<stop offset="0.759615" stop-color="#32BEF0"/>
<stop offset="1" stop-color="#46EEAA"/>
</linearGradient>
<linearGradient id="paint2_linear_0_1" x1="341.478" y1="1387.1" x2="931.698" y2="1387.1" gradientUnits="userSpaceOnUse">
<stop stop-color="#32BEF0"/>
<stop offset="1" stop-color="#253E7D"/>
</linearGradient>
<linearGradient id="paint3_linear_0_1" x1="464.1" y1="29.802" x2="464.561" y2="95.7032" gradientUnits="userSpaceOnUse">
<stop stop-color="#8739E4"/>
<stop offset="0.9" stop-color="#253E7D"/>
</linearGradient>
</defs>
</svg>
