<?xml version="1.0" encoding="UTF-8"?>
<svg xmlns="http://www.w3.org/2000/svg" width="24" height="24" viewBox="0 0 24 24" fill="none">
  <g clip-path="url(#clip0_317_4812)">
    <path d="M12 24C18.6274 24 24 18.6274 24 12C24 5.37258 18.6274 0 12 0C5.37258 0 0 5.37258 0 12C0 18.6274 5.37258 24 12 24Z" fill="url(#paint0_linear_317_4812)"></path>
    <path d="M12 24C18.6274 24 24 18.6274 24 12C24 5.37258 18.6274 0 12 0C5.37258 0 0 5.37258 0 12C0 18.6274 5.37258 24 12 24Z" fill="url(#paint1_linear_317_4812)"></path>
    <path d="M12 22.14C12 23.175 12.9225 24.0075 13.9425 23.8425C19.6425 22.9125 24 17.9625 24 12C24 6.03748 19.6425 1.08748 13.9425 0.157479C12.9225 -0.00752084 12 0.824979 12 1.85998V22.14Z" fill="url(#paint2_radial_317_4812)"></path>
    <path d="M12 22.14C12 23.175 12.9225 24.0075 13.9425 23.8425C19.6425 22.9125 24 17.9625 24 12C24 6.03748 19.6425 1.08748 13.9425 0.157479C12.9225 -0.00752084 12 0.824979 12 1.85998V22.14Z" fill="url(#paint3_linear_317_4812)"></path>
    <path d="M23.8425 10.05C23.0175 4.98747 19.0125 0.982475 13.95 0.157474C12.9225 -0.00752555 12 0.824975 12 1.86747V10.2825C12 11.2275 12.7725 12 13.7175 12H22.1325C23.175 12 24.0075 11.0775 23.8425 10.05Z" fill="url(#paint4_radial_317_4812)"></path>
  </g>
  <defs>
    <linearGradient id="paint0_linear_317_4812" x1="11.9925" y1="12" x2="-9.9075" y2="12" gradientUnits="userSpaceOnUse">
      <stop stop-color="#253E7D"></stop>
      <stop offset="1" stop-color="#32BEF0"></stop>
    </linearGradient>
    <linearGradient id="paint1_linear_317_4812" x1="11.9775" y1="12" x2="0.285" y2="12" gradientUnits="userSpaceOnUse">
      <stop stop-opacity="0.5"></stop>
      <stop offset="1" stop-color="#000066" stop-opacity="0"></stop>
    </linearGradient>
    <radialGradient id="paint2_radial_317_4812" cx="0" cy="0" r="1" gradientUnits="userSpaceOnUse" gradientTransform="translate(12.9675 12.6075) scale(35.4675 35.4675)">
      <stop offset="0.05" stop-color="#253E7D"></stop>
      <stop offset="1" stop-color="#32BEF0"></stop>
    </radialGradient>
    <linearGradient id="paint3_linear_317_4812" x1="18" y1="12.1875" x2="18" y2="23.025" gradientUnits="userSpaceOnUse">
      <stop stop-opacity="0.5"></stop>
      <stop offset="1" stop-color="#000066" stop-opacity="0"></stop>
    </linearGradient>
    <radialGradient id="paint4_radial_317_4812" cx="0" cy="0" r="1" gradientUnits="userSpaceOnUse" gradientTransform="translate(34.485 -9.27003) scale(31.305)">
      <stop stop-color="#32BEF0"></stop>
      <stop offset="0.94" stop-color="#253E7D"></stop>
    </radialGradient>
    <clipPath id="clip0_317_4812">
      <rect width="24" height="24" fill="white"></rect>
    </clipPath>
  </defs>
</svg>
