<svg id="visual" viewBox="0 0 900 900" width="900" height="900" xmlns="http://www.w3.org/2000/svg" xmlns:xlink="http://www.w3.org/1999/xlink" version="1.1"><g transform="translate(545.5183114497643 615.282599038022)"><path d="M258.2 -420.5C303.2 -322.7 286.7 -205.2 298.2 -110.8C309.7 -16.4 349.4 55 320.9 92.4C292.4 129.8 195.8 133.1 131 155.8C66.1 178.4 33.1 220.2 -13.7 239.1C-60.5 258 -121.1 254 -190.7 232.9C-260.3 211.9 -338.9 173.8 -409.7 99.2C-480.6 24.7 -543.7 -86.2 -514.9 -164.9C-486 -243.6 -365.3 -290.1 -264.1 -369.7C-163 -449.4 -81.5 -562.2 12.5 -579.4C106.6 -596.7 213.2 -518.4 258.2 -420.5" fill="#E7A427"></path></g></svg>
