<svg width="24" height="24" viewBox="0 0 24 24" fill="none" xmlns="http://www.w3.org/2000/svg">
<path fill-rule="evenodd" clip-rule="evenodd" d="M16.7193 16.3881C16.7193 16.7855 16.3967 17.1081 15.9993 17.1081C15.6018 17.1081 15.2793 16.7855 15.2793 16.3881V7.6223C15.2793 7.22486 15.6018 6.9023 15.9993 6.9023C16.3967 6.9023 16.7193 7.22486 16.7193 7.6223V16.3881ZM12.7535 16.3881C12.7535 16.7855 12.4309 17.1081 12.0335 17.1081C11.6361 17.1081 11.3135 16.7855 11.3135 16.3881V11.0793C11.3135 10.6818 11.6361 10.3593 12.0335 10.3593C12.4309 10.3593 12.7535 10.6818 12.7535 11.0793V16.3881ZM8.7215 16.3881C8.7215 16.7855 8.39894 17.1081 8.0015 17.1081C7.60406 17.1081 7.2815 16.7855 7.2815 16.3881V13.6713C7.2815 13.2738 7.60406 12.9513 8.0015 12.9513C8.39894 12.9513 8.7215 13.2738 8.7215 13.6713V16.3881ZM16.0501 2.88086H7.95254C4.91894 2.88086 2.88086 5.01398 2.88086 8.18966V15.8111C2.88086 18.9868 4.91894 21.1209 7.95254 21.1209H16.0492C19.0828 21.1209 21.1209 18.9868 21.1209 15.8111V8.18966C21.1209 5.01398 19.0828 2.88086 16.0501 2.88086Z" fill="#292929"/>
</svg>
