<svg width="16" height="16" viewBox="0 0 16 16" fill="none" xmlns="http://www.w3.org/2000/svg">
<path fill-rule="evenodd" clip-rule="evenodd" d="M6.94606 7.45972C6.86539 7.50839 6.77672 7.53105 6.68939 7.53105C6.51942 7.53105 6.35408 7.44439 6.26008 7.28839C5.93608 6.74772 5.68208 6.06574 5.50475 5.26041C5.44542 4.99041 5.61608 4.72373 5.88542 4.66507C6.15475 4.60373 6.42208 4.77641 6.48142 5.04574C6.63475 5.74507 6.84872 6.32641 7.11739 6.77372C7.26006 7.01039 7.18272 7.31772 6.94606 7.45972ZM14.4814 3.62841C14.4534 3.37574 14.2394 3.1844 13.9847 3.1844H12.3427C12.3654 2.81107 12.3674 2.5624 12.3674 2.51107C12.3674 2.32707 12.2181 2.17773 12.0341 2.17773H3.96742C3.87875 2.17773 3.79408 2.21307 3.73142 2.27573C3.66875 2.33774 3.63408 2.42307 3.63408 2.51173C3.63408 2.56307 3.63608 2.81173 3.65875 3.1844H2.01608C1.76142 3.1844 1.54742 3.37574 1.51942 3.62841C1.50608 3.74441 1.22542 6.4824 3.32742 7.86572C3.41208 7.92172 3.50742 7.94839 3.60208 7.94839C3.76475 7.94839 3.92408 7.86905 4.02008 7.72372C4.17142 7.49239 4.10808 7.18239 3.87742 7.03039C2.72675 6.27373 2.52675 4.89307 2.50408 4.1844H3.75275C4.01208 6.2704 4.84342 9.59639 7.49939 9.97105V11.1397H5.93675C5.79208 11.1397 5.66342 11.2337 5.61942 11.3717L5.15475 12.8217H4.26675C3.99075 12.8217 3.76675 13.0457 3.76675 13.3217C3.76675 13.5977 3.99075 13.8217 4.26675 13.8217H11.8301C12.1061 13.8217 12.3301 13.5977 12.3301 13.3217C12.3301 13.0457 12.1061 12.8217 11.8301 12.8217H10.9421L10.4781 11.3717C10.4334 11.2337 10.3054 11.1397 10.1607 11.1397H8.49939V9.97172C11.1607 9.60105 11.9914 6.2724 12.2501 4.1844H13.4967C13.4741 4.89307 13.2741 6.27373 12.1241 7.03039C11.8934 7.18239 11.8294 7.49239 11.9814 7.72372C12.0774 7.86905 12.2367 7.94839 12.3994 7.94839C12.4934 7.94839 12.5887 7.92172 12.6741 7.86572C14.7761 6.4824 14.4947 3.74441 14.4814 3.62841Z" fill="#292929"/>
</svg>
