<svg width="24" height="24" viewBox="0 0 24 24" fill="none" xmlns="http://www.w3.org/2000/svg">
<path fill-rule="evenodd" clip-rule="evenodd" d="M11.8059 12.0094C11.9619 11.8044 12.0369 11.5284 12.1849 10.9774L12.4469 10.0064C12.7279 8.96542 12.8679 8.44542 12.7509 8.03342C12.6439 7.65642 12.3969 7.33542 12.0619 7.13342C11.6949 6.91342 11.1559 6.91342 10.0779 6.91342H9.08781C8.90281 6.91342 8.86781 6.84142 8.91981 6.67942C9.63481 4.45642 9.26781 3.57142 8.55881 3.42542C8.28781 3.36942 8.17481 3.37242 7.96081 3.58142C7.26681 4.39942 6.09581 5.67942 5.45681 6.37242C5.29181 6.55242 5.20881 6.64142 5.14981 6.74242C5.09581 6.83642 5.05681 6.93642 5.03281 7.04242C5.00781 7.15642 5.00781 7.27742 5.00781 7.51942V10.4864C5.00781 11.1954 5.00781 11.5494 5.14381 11.8214C5.26781 12.0704 5.46981 12.2724 5.71981 12.3974C5.99081 12.5334 6.34581 12.5334 7.05381 12.5334H10.1539C10.7249 12.5334 11.0109 12.5334 11.2499 12.4354C11.4699 12.3464 11.6619 12.1994 11.8059 12.0094Z" fill="#FDFCFC"/>
<path fill-rule="evenodd" clip-rule="evenodd" d="M18.8534 14.6438C18.7944 14.5428 18.7114 14.4538 18.5464 14.2748C17.9074 13.5818 16.7364 12.3008 16.0424 11.4828C15.8284 11.2748 15.7154 11.2718 15.4444 11.3278C14.7354 11.4728 14.3684 12.3588 15.0834 14.5808C15.1364 14.7428 15.1004 14.8148 14.9154 14.8148H13.9254C12.8474 14.8148 12.3084 14.8148 11.9414 15.0348C11.6064 15.2368 11.3594 15.5588 11.2524 15.9348C11.1354 16.3468 11.2754 16.8668 11.5564 17.9078L11.8184 18.8788C11.9664 19.4298 12.0414 19.7058 12.1974 19.9118C12.3414 20.1008 12.5334 20.2478 12.7534 20.3378C12.9924 20.4348 13.2784 20.4348 13.8494 20.4348H16.9494C17.6574 20.4348 18.0124 20.4348 18.2834 20.2988C18.5334 20.1748 18.7354 19.9728 18.8594 19.7228C18.9954 19.4518 18.9954 19.0968 18.9954 18.3878V15.4218C18.9954 15.1798 18.9954 15.0578 18.9704 14.9438C18.9464 14.8378 18.9074 14.7378 18.8534 14.6438Z" fill="#FDFCFC"/>
<path fill-rule="evenodd" clip-rule="evenodd" d="M3.75 11.7609V6.83789C3.75 6.42389 3.414 6.08789 3 6.08789C2.586 6.08789 2.25 6.42389 2.25 6.83789V11.7609C2.25 12.1749 2.586 12.5109 3 12.5109C3.414 12.5109 3.75 12.1749 3.75 11.7609Z" fill="#FDFCFC"/>
<path fill-rule="evenodd" clip-rule="evenodd" d="M21 14.0391C20.586 14.0391 20.25 14.3751 20.25 14.7891V19.7111C20.25 20.1251 20.586 20.4611 21 20.4611C21.414 20.4611 21.75 20.1251 21.75 19.7111V14.7891C21.75 14.3751 21.414 14.0391 21 14.0391Z" fill="#FDFCFC"/>
<path fill-rule="evenodd" clip-rule="evenodd" d="M20.6682 6.12097C20.3982 5.80497 19.9262 5.76797 19.6102 6.03797L18.5992 6.90097C18.2842 7.16997 18.2462 7.64297 18.5162 7.95897C18.6642 8.13297 18.8742 8.22197 19.0862 8.22197C19.2592 8.22197 19.4322 8.16297 19.5732 8.04197L20.5852 7.17897C20.8992 6.90997 20.9382 6.43597 20.6682 6.12097Z" fill="#FDFCFC"/>
<path fill-rule="evenodd" clip-rule="evenodd" d="M4.52838 16.2037L3.51638 17.0667C3.20238 17.3357 3.16438 17.8087 3.43338 18.1247C3.58238 18.2987 3.79238 18.3877 4.00438 18.3877C4.17638 18.3877 4.34938 18.3287 4.49138 18.2077L5.50338 17.3447C5.81738 17.0757 5.85538 16.6017 5.58638 16.2867C5.31638 15.9717 4.84338 15.9337 4.52838 16.2037Z" fill="#FDFCFC"/>
<path fill-rule="evenodd" clip-rule="evenodd" d="M16.3254 6.34786C16.4094 6.37786 16.4944 6.39186 16.5784 6.39186C16.8864 6.39186 17.1754 6.20186 17.2844 5.89486L17.7324 4.64286C17.8724 4.25286 17.6694 3.82386 17.2794 3.68386C16.8864 3.54186 16.4594 3.74586 16.3204 4.13686L15.8724 5.38886C15.7324 5.77886 15.9354 6.20786 16.3254 6.34786Z" fill="#FDFCFC"/>
<path fill-rule="evenodd" clip-rule="evenodd" d="M7.7774 17.897C7.3884 17.754 6.9584 17.96 6.8194 18.351L6.3724 19.603C6.2324 19.993 6.4354 20.422 6.8264 20.561C6.9094 20.591 6.9944 20.605 7.0784 20.605C7.3854 20.605 7.6744 20.414 7.7844 20.107L8.2314 18.855C8.3714 18.465 8.1684 18.036 7.7774 17.897Z" fill="#FDFCFC"/>
</svg>
