<svg width="48" height="48" viewBox="0 0 48 48" fill="none" xmlns="http://www.w3.org/2000/svg">
<path fill-rule="evenodd" clip-rule="evenodd" d="M35.572 18.3984H32.766C31.938 18.3984 31.266 17.7264 31.266 16.8984C31.266 16.0704 31.938 15.3984 32.766 15.3984H35.572C36.4 15.3984 37.072 16.0704 37.072 16.8984C37.072 17.7264 36.4 18.3984 35.572 18.3984ZM24.002 30.0784C20.652 30.0784 17.926 27.3524 17.926 23.9984C17.926 20.6444 20.652 17.9184 24.002 17.9184C27.352 17.9184 30.078 20.6444 30.078 23.9984C30.078 27.3524 27.352 30.0784 24.002 30.0784ZM15.236 32.5984H12.43C11.602 32.5984 10.93 31.9264 10.93 31.0984C10.93 30.2704 11.602 29.5984 12.43 29.5984H15.236C16.064 29.5984 16.736 30.2704 16.736 31.0984C16.736 31.9264 16.064 32.5984 15.236 32.5984ZM35.624 8.89844H12.376C7.964 8.89844 5 11.9924 5 16.5984V31.3984C5 36.0044 7.964 39.0984 12.376 39.0984H35.622C40.034 39.0984 43 36.0044 43 31.3984V16.5984C43 11.9924 40.036 8.89844 35.624 8.89844Z" fill="#282420"/>
<path fill-rule="evenodd" clip-rule="evenodd" d="M24.0018 20.918C22.3058 20.918 20.9258 22.298 20.9258 23.998C20.9258 25.698 22.3058 27.078 24.0018 27.078C25.6978 27.078 27.0778 25.698 27.0778 23.998C27.0778 22.298 25.6978 20.918 24.0018 20.918Z" fill="#282420"/>
</svg>
